# xmcd
#
# Track frame offsets: 
#        182
#        26597
#        48322
#        76855
#        103172
#        120785
#        150227
#        178157
#        203100
#        236172
#        258145
#        287897
#
# Disc length: 4139 seconds
#
# Revision: 1
# Processed by: cddbd v1.5.2PL0 Copyright (c) Steve Scherf et al.
# Submitted via: ExactAudioCopy v1.0b1
#
DISCID=9410290c
DTITLE=Jacques Pelzer - Salute to the Band Box
DYEAR=1993
DGENRE=Jazz
TTITLE0=Salute to the Band Box (Gigi Gryce)
TTITLE1=Quick Step (Gigi Gryce)
TTITLE2=Theme for Ernie (Fred Lacey)
TTITLE3=I didn't know what time it was (Hart Rodgers)
TTITLE4=Consultation (Gigi Gryce)
TTITLE5=Social Call (Gigi Gryce)
TTITLE6=Speak Low (Kurt Weill)
TTITLE7=Gnid (Tadd Dameron)
TTITLE8=Soul Trane (Tadd Dameron)
TTITLE9=Deltitnu (Gigi Gryce)
TTITLE10=Love Vibrations (Horace Silver)
TTITLE11=Minority (Gigi Gryce)
EXTD=YEAR: 1993
EXTT0=
EXTT1=
EXTT2=
EXTT3=
EXTT4=
EXTT5=
EXTT6=
EXTT7=
EXTT8=
EXTT9=
EXTT10=
EXTT11=
PLAYORDER=
